<svg width="32" height="27" viewBox="0 0 32 27" fill="none" xmlns="http://www.w3.org/2000/svg">
<path d="M3.76705 19.8801L2.88749 21.1365C2.82975 21.2192 2.78573 21.3106 2.75711 21.4073L1.91186 24.249C1.85561 24.4375 1.86018 24.639 1.92492 24.8248C1.98965 25.0105 2.11126 25.1712 2.27249 25.2839C2.43357 25.3969 2.62614 25.4562 2.82286 25.4536C3.01958 25.4509 3.21046 25.3863 3.36842 25.2691L5.73874 23.5108C4.58811 22.6963 3.82886 21.3791 3.76705 19.8801ZM31.0625 11.251H28.2497V25.3133C28.2497 26.0103 28.9831 26.4636 29.6067 26.1519L31.6209 24.6579C31.7385 24.5708 31.834 24.4572 31.8998 24.3265C31.9657 24.1957 32 24.0514 32 23.905V12.1885C32 11.6706 31.5803 11.251 31.0625 11.251ZM18.7131 0.16993C18.2886 -0.127445 17.7046 -0.0244449 17.4072 0.400118L15.7939 2.70412L18.8659 4.85525L20.4792 2.55124C20.7766 2.12668 20.6736 1.54274 20.249 1.24537L18.7131 0.16993ZM7.01217 15.2459C7.46386 15.1006 7.93624 15.001 8.43555 15.001H11.7617L17.7905 6.39112L14.7185 4.23999L7.01217 15.2459ZM6.7153 7.34862C6.19899 7.57185 5.76188 7.9454 5.46092 8.42062L0.294172 16.5559C-0.353329 17.8516 0.106171 19.4033 1.2988 20.1694C1.32055 20.1353 1.32761 20.095 1.3508 20.0618L11.4297 5.66725C11.0534 5.64456 10.6689 5.6685 10.2815 5.79931L6.7153 7.34862ZM7.49805 24.282V24.8458C7.49805 25.6223 8.12768 26.252 8.90455 26.252C9.68111 26.252 10.3108 25.6223 10.3108 24.8458V24.377H8.43555C8.12065 24.3769 7.80657 24.3451 7.49805 24.282ZM12.1861 24.3769V24.8457C12.1861 25.6223 12.8157 26.2519 13.5923 26.2519C14.2802 26.2519 14.8264 25.7483 14.9482 25.0954C14.6428 24.969 14.3325 24.8548 14.0364 24.7083L13.3862 24.3767H12.1861V24.3769Z" fill="white"/>
<path d="M26.3782 11.2533H24.6575L18.6997 8.36877L14.1123 14.9208C15.2529 14.7435 16.3313 14.224 17.1521 13.403C17.5183 13.0367 18.1118 13.0367 18.478 13.403C18.8443 13.7692 18.8443 14.3627 18.478 14.7289C17.1118 16.0948 15.2202 16.8788 13.2883 16.8788H8.43946C6.93746 16.8788 5.62671 18.0985 5.62671 19.6913C5.62671 21.248 6.88302 22.504 8.43946 22.504H13.8398C14.29 22.6801 16.7949 24.3793 20.628 24.3793C22.5678 24.3793 24.6298 23.9259 26.3782 23.0851V11.2533Z" fill="white"/>
</svg>
